<svg xmlns="http://www.w3.org/2000/svg" width="21.5" height="21" viewBox="0 0 21.5 21">
  <g id="Calendar" transform="translate(-1110.25 -680.25)">
    <path id="Path_17711" data-name="Path 17711" d="M2,12C2,8.229,2,6.343,3.172,5.172S6.229,4,10,4h4c3.771,0,5.657,0,6.828,1.172S22,8.229,22,12v2c0,3.771,0,5.657-1.172,6.828S17.771,22,14,22H10c-3.771,0-5.657,0-6.828-1.172S2,17.771,2,14Z" transform="translate(1109 678.5)" fill="none" stroke="#2247c2" stroke-width="1.5"/>
    <path id="Path_17712" data-name="Path 17712" d="M7,4V2.5" transform="translate(1109 678.5)" fill="none" stroke="#2247c2" stroke-linecap="round" stroke-width="1.5" opacity="0.5"/>
    <path id="Path_17713" data-name="Path 17713" d="M17,4V2.5" transform="translate(1109 678.5)" fill="none" stroke="#2247c2" stroke-linecap="round" stroke-width="1.5" opacity="0.5"/>
    <path id="Path_17714" data-name="Path 17714" d="M2.5,9h19" transform="translate(1109 678.5)" fill="none" stroke="#2247c2" stroke-linecap="round" stroke-width="1.5" opacity="0.5"/>
    <path id="Path_17715" data-name="Path 17715" d="M18,17a1,1,0,1,1-1-1A1,1,0,0,1,18,17Z" transform="translate(1109 678.5)" fill="#153ecb"/>
    <path id="Path_17716" data-name="Path 17716" d="M18,13a1,1,0,1,1-1-1A1,1,0,0,1,18,13Z" transform="translate(1109 678.5)" fill="#153ecb"/>
    <path id="Path_17717" data-name="Path 17717" d="M13,17a1,1,0,1,1-1-1A1,1,0,0,1,13,17Z" transform="translate(1109 678.5)" fill="#153ecb"/>
    <path id="Path_17718" data-name="Path 17718" d="M13,13a1,1,0,1,1-1-1A1,1,0,0,1,13,13Z" transform="translate(1109 678.5)" fill="#153ecb"/>
    <path id="Path_17719" data-name="Path 17719" d="M8,17a1,1,0,1,1-1-1A1,1,0,0,1,8,17Z" transform="translate(1109 678.5)" fill="#153ecb"/>
    <path id="Path_17720" data-name="Path 17720" d="M8,13a1,1,0,1,1-1-1A1,1,0,0,1,8,13Z" transform="translate(1109 678.5)" fill="#153ecb"/>
  </g>
</svg>
