<svg xmlns="http://www.w3.org/2000/svg" width="20.819" height="20.819" viewBox="0 0 20.819 20.819">
  <path id="check" d="M23.584,4.5H6.235A1.733,1.733,0,0,0,4.5,6.235V23.584a1.733,1.733,0,0,0,1.735,1.735H23.584a1.733,1.733,0,0,0,1.735-1.735V6.235A1.733,1.733,0,0,0,23.584,4.5Zm-2.846,7.292-7.249,7.281h-.005a.979.979,0,0,1-.629.3.949.949,0,0,1-.634-.309L9.184,16.027a.216.216,0,0,1,0-.309l.965-.965a.21.21,0,0,1,.3,0L12.86,17.16,19.475,10.5a.214.214,0,0,1,.152-.065h0a.2.2,0,0,1,.152.065l.949.981A.214.214,0,0,1,20.738,11.792Z" transform="translate(-4.5 -4.5)" fill="#43b776"/>
</svg>
