<svg xmlns="http://www.w3.org/2000/svg" width="19.275" height="20.152" viewBox="0 0 19.275 20.152">
  <g id="Customer_management" data-name="Customer management" transform="translate(-109.7 -73.2)">
    <path id="Path_11903" data-name="Path 11903" d="M589.043,548.7l-3.943,2.19v4.382l3.943,2.19,3.943-2.19V550.89Zm2.19,5.541-2.19,1.217-2.19-1.217v-2.319l2.19-1.217,2.19,1.217Z" transform="translate(-464.011 -464.109)" fill="#fff"/>
    <path id="Path_11904" data-name="Path 11904" d="M713.135,696.008A.877.877,0,1,0,713.86,695,.877.877,0,0,0,713.135,696.008Z" transform="translate(-588.967 -606.895)" fill="#fff"/>
    <path id="Path_11905" data-name="Path 11905" d="M123.571,82.941a9.632,9.632,0,0,0-.932-.4,5.256,5.256,0,1,0-6.6,0A9.655,9.655,0,0,0,109.7,91.6h1.751a7.894,7.894,0,0,1,7.884-7.884,7.814,7.814,0,0,1,3.462.8Zm-4.233-7.99a3.5,3.5,0,1,1-3.5,3.5A3.508,3.508,0,0,1,119.338,74.951Z" fill="#fff"/>
  </g>
</svg>
