<svg xmlns="http://www.w3.org/2000/svg" width="18.213" height="17.169" viewBox="0 0 18.213 17.169">
  <g id="Customer_Order_Details" data-name="Customer Order Details" transform="translate(-3.75 -3.75)">
    <path id="Path_11897" data-name="Path 11897" d="M6.5,6.38A1.88,1.88,0,0,1,8.38,4.5h6.685a1.88,1.88,0,0,1,1.88,1.88v5.432H8.38A1.88,1.88,0,0,1,6.5,9.932Z" transform="translate(0.089)" fill="none" stroke="#0e4a6e" stroke-width="1.5"/>
    <path id="Path_11898" data-name="Path 11898" d="M4.5,13.38A1.88,1.88,0,0,1,6.38,11.5h6.476v8.357H6.38a1.88,1.88,0,0,1-1.88-1.88Z" transform="translate(0 0.312)" fill="none" stroke="#0e4a6e" stroke-width="1.5"/>
    <path id="Path_11899" data-name="Path 11899" d="M12.5,11.5h6.476a1.88,1.88,0,0,1,1.88,1.88v4.6a1.88,1.88,0,0,1-1.88,1.88H12.5Z" transform="translate(0.357 0.312)" fill="none" stroke="#0e4a6e" stroke-width="1.5"/>
    <path id="Path_11900" data-name="Path 11900" d="M16.5,11.5v3.134" transform="translate(0.535 0.312)" fill="none" stroke="#0e4a6e" stroke-linecap="round" stroke-width="1.5"/>
    <path id="Path_11901" data-name="Path 11901" d="M8.5,11.5v3.134" transform="translate(0.178 0.312)" fill="none" stroke="#0e4a6e" stroke-linecap="round" stroke-width="1.5"/>
    <path id="Path_11902" data-name="Path 11902" d="M11.5,4.5V7.634" transform="translate(0.312)" fill="none" stroke="#0e4a6e" stroke-linecap="round" stroke-width="1.5"/>
  </g>
</svg>
