<svg xmlns="http://www.w3.org/2000/svg" width="15.5" height="16.503" viewBox="0 0 15.5 16.503">
  <g id="Dashboard" transform="translate(-4.75 -3.249)">
    <path id="Path_11906" data-name="Path 11906" d="M9.918,10H7.082A1.569,1.569,0,0,0,5.5,11.557v5.889A1.569,1.569,0,0,0,7.082,19H9.918A1.569,1.569,0,0,0,11.5,17.444V11.557A1.569,1.569,0,0,0,9.918,10Z" fill="none" stroke="#fff" stroke-linecap="round" stroke-linejoin="round" stroke-width="1.5" fill-rule="evenodd"/>
    <path id="Path_11907" data-name="Path 11907" d="M9.918,4H7.082A1.54,1.54,0,0,0,5.5,5.494V6.508A1.54,1.54,0,0,0,7.082,8H9.918A1.54,1.54,0,0,0,11.5,6.508V5.494A1.54,1.54,0,0,0,9.918,4Z" fill="none" stroke="#fff" stroke-linecap="round" stroke-linejoin="round" stroke-width="1.5" fill-rule="evenodd"/>
    <path id="Path_11908" data-name="Path 11908" d="M15.082,13h2.835A1.569,1.569,0,0,0,19.5,11.445V5.557A1.569,1.569,0,0,0,17.918,4H15.082A1.569,1.569,0,0,0,13.5,5.557v5.888A1.569,1.569,0,0,0,15.082,13Z" fill="none" stroke="#fff" stroke-linecap="round" stroke-linejoin="round" stroke-width="1.5" fill-rule="evenodd"/>
    <path id="Path_11909" data-name="Path 11909" d="M15.082,19h2.835A1.54,1.54,0,0,0,19.5,17.508V16.494A1.54,1.54,0,0,0,17.918,15H15.082A1.54,1.54,0,0,0,13.5,16.494v1.013A1.54,1.54,0,0,0,15.082,19Z" fill="none" stroke="#fff" stroke-linecap="round" stroke-linejoin="round" stroke-width="1.5" fill-rule="evenodd"/>
  </g>
</svg>
