<svg xmlns="http://www.w3.org/2000/svg" width="19.855" height="22.275" viewBox="0 0 19.855 22.275">
  <g id="Delete" transform="translate(-1741.072 -309)">
    <path id="Path_11327" data-name="Path 11327" d="M4,7H21.855" transform="translate(1738.072 307.464)" fill="none" stroke="#ff6868" stroke-linecap="round" stroke-linejoin="round" stroke-width="2"/>
    <path id="Path_11329" data-name="Path 11329" d="M9,5.232A2.232,2.232,0,0,1,11.232,3h2.232A2.232,2.232,0,0,1,15.7,5.232V7.464H9Z" transform="translate(1738.652 307)" fill="none" stroke="#ff6868" stroke-linecap="round" stroke-linejoin="round" stroke-width="2"/>
    <path id="Path_11325" data-name="Path 11325" d="M10,12v5.58" transform="translate(1738.768 305.5)" fill="none" stroke="#ff6868" stroke-linecap="round" stroke-linejoin="round" stroke-width="2"/>
    <path id="Path_11326" data-name="Path 11326" d="M14,12v5.58" transform="translate(1739.231 305.5)" fill="none" stroke="#ff6868" stroke-linecap="round" stroke-linejoin="round" stroke-width="2"/>
    <path id="Path_11328" data-name="Path 11328" d="M6,10v8.927a3.348,3.348,0,0,0,3.348,3.348h6.7a3.348,3.348,0,0,0,3.348-3.348V10" transform="translate(1738.305 308)" fill="none" stroke="#ff6868" stroke-linecap="round" stroke-linejoin="round" stroke-width="2"/>
  </g>
</svg>
