<svg xmlns="http://www.w3.org/2000/svg" width="19.5" height="19.5" viewBox="0 0 19.5 19.5">
  <g id="download" transform="translate(-2.25 -2.25)">
    <path id="Path_16614" data-name="Path 16614" d="M12.554,16.506a.75.75,0,0,1-1.107,0l-4-4.375a.75.75,0,0,1,1.107-1.012l2.7,2.949V3a.75.75,0,0,1,1.5,0V14.068l2.7-2.949a.75.75,0,1,1,1.107,1.012Z" fill="#2ac8a8"/>
    <path id="Path_16615" data-name="Path 16615" d="M3.75,15a.75.75,0,0,0-1.5,0v.055a27.418,27.418,0,0,0,.117,3.337,3.717,3.717,0,0,0,.982,2.26,3.717,3.717,0,0,0,2.26.982,27.434,27.434,0,0,0,3.337.117h6.11a27.435,27.435,0,0,0,3.337-.117,3.717,3.717,0,0,0,2.26-.982,3.717,3.717,0,0,0,.982-2.26,27.435,27.435,0,0,0,.117-3.337V15a.75.75,0,0,0-1.5,0,26.879,26.879,0,0,1-.1,3.192,2.255,2.255,0,0,1-.556,1.4,2.255,2.255,0,0,1-1.4.556,26.879,26.879,0,0,1-3.192.1H9a26.878,26.878,0,0,1-3.192-.1,2.255,2.255,0,0,1-1.4-.556,2.255,2.255,0,0,1-.556-1.4A26.864,26.864,0,0,1,3.75,15Z" fill="#2ac8a8"/>
  </g>
</svg>
