<svg xmlns="http://www.w3.org/2000/svg" width="15.62" height="15.62" viewBox="0 0 15.62 15.62">
  <g id="Estimates" transform="translate(-4.75 -4.25)">
    <path id="Path_16605" data-name="Path 16605" d="M8.638,19.12A3.138,3.138,0,0,1,5.5,15.982V8.138A3.138,3.138,0,0,1,8.638,5h7.845A3.138,3.138,0,0,1,19.62,8.138v7.845a3.138,3.138,0,0,1-3.138,3.138Z" transform="translate(0)" fill="none" stroke="#0e4a6e" stroke-linecap="round" stroke-linejoin="round" stroke-width="1.5" fill-rule="evenodd"/>
    <path id="Path_16606" data-name="Path 16606" d="M7.833,8.9v1.568a.785.785,0,0,0,.785.785h7.845a.785.785,0,0,0,.785-.785V8.9a.785.785,0,0,0-.785-.785H8.618A.785.785,0,0,0,7.833,8.9Z" transform="translate(0.02 0.027)" fill="none" stroke="#0e4a6e" stroke-linecap="round" stroke-linejoin="round" stroke-width="1.5" fill-rule="evenodd"/>
    <path id="Path_16607" data-name="Path 16607" d="M15.684,12.806a.756.756,0,0,0,0,1.513Zm1.569,1.513a.756.756,0,0,0,0-1.513Zm-5.491-1.513a.756.756,0,0,0,0,1.513Zm1.568,1.513a.756.756,0,1,0,0-1.513ZM7.84,12.806a.756.756,0,1,0,0,1.513Zm1.568,1.513a.756.756,0,0,0,0-1.513Zm-1.569.84a.756.756,0,1,0,0,1.513Zm1.569,1.513a.756.756,0,0,0,0-1.513Zm2.353-1.513a.756.756,0,1,0,0,1.513Zm5.491,1.513a.756.756,0,1,0,0-1.513Zm-1.568-2.353h1.569V12.806H15.684Zm-3.921,0h1.568V12.806H11.763Zm-3.922,0H9.409V12.806H7.84Zm0,2.353H9.409V15.159H7.839Zm3.922,0h5.491V15.159H11.762Z" transform="translate(0.014 0.067)" fill="#0e4a6e"/>
  </g>
</svg>
