<svg xmlns="http://www.w3.org/2000/svg" width="25.838" height="18.087" viewBox="0 0 25.838 18.087">
  <g id="Group_11668" data-name="Group 11668" transform="translate(-1097.148 -618)">
    <path id="Path_11332" data-name="Path 11332" d="M12.876,9a3.876,3.876,0,1,0,3.876,3.876A3.876,3.876,0,0,0,12.876,9Zm-1.292,3.876a1.292,1.292,0,1,1,1.292,1.292A1.292,1.292,0,0,1,11.584,12.876Z" transform="translate(1097.192 614)" fill="#747df3" fill-rule="evenodd"/>
    <path id="Path_11333" data-name="Path 11333" d="M27.618,13.114C24.663,7.78,19.844,5,14.919,5S5.175,7.78,2.22,13.114A1.777,1.777,0,0,0,2.207,14.8c2.909,5.444,7.755,8.284,12.712,8.284s9.8-2.841,12.712-8.284A1.777,1.777,0,0,0,27.618,13.114ZM14.919,20.5c-3.8,0-7.7-2.1-10.217-6.526,2.554-4.331,6.436-6.393,10.217-6.393s7.663,2.062,10.217,6.393C22.618,18.4,18.716,20.5,14.919,20.5Z" transform="translate(1095.148 613)" fill="#747df3" fill-rule="evenodd"/>
  </g>
</svg>
