<svg xmlns="http://www.w3.org/2000/svg" xmlns:xlink="http://www.w3.org/1999/xlink" width="20" height="20" viewBox="0 0 20 20">
  <defs>
    <clipPath id="clip-path">
      <rect id="Rectangle_18705" data-name="Rectangle 18705" width="20" height="20" fill="#fff"/>
    </clipPath>
  </defs>
  <g id="inventory-svgrepo-com" clip-path="url(#clip-path)">
    <path id="Path_11910" data-name="Path 11910" d="M1.68.84A.84.84,0,0,0,0,.84V19.319a.84.84,0,0,0,1.68,0v-.84h16.8v.84a.84.84,0,0,0,1.68,0V.84a.84.84,0,1,0-1.68,0V6.72H16.8V2.52a.84.84,0,0,0-.84-.84H9.239a.84.84,0,0,0-.84.84v.84H4.2a.84.84,0,0,0-.84.84V6.72H1.68ZM8.4,5.04H5.04V6.72H8.4ZM1.68,8.4v8.4H3.36v-5.88a.84.84,0,0,1,.84-.84h6.72a.84.84,0,0,1,.84.84v.84h4.2a.84.84,0,0,1,.84.84v4.2h1.68V8.4ZM15.119,6.72V3.36h-5.04V6.72ZM10.079,16.8H5.04v-5.04h5.04Zm1.68,0v-3.36h3.36V16.8Z" fill="#fff" fill-rule="evenodd"/>
  </g>
</svg>
