<svg xmlns="http://www.w3.org/2000/svg" width="13.734" height="14.983" viewBox="0 0 13.734 14.983">
  <g id="Invoices" transform="translate(-109.55 -73.14)">
    <path id="Path_16610" data-name="Path 16610" d="M121.832,73.14h-.111a1.5,1.5,0,0,0-1.286.781.323.323,0,0,1-.511.041,2.028,2.028,0,0,0-3.261,0,.321.321,0,0,1-.483,0,2.024,2.024,0,0,0-3.257,0,.321.321,0,0,1-.511-.041,1.5,1.5,0,0,0-1.286-.781H111a1.454,1.454,0,0,0-1.452,1.452V86.671A1.454,1.454,0,0,0,111,88.123h.123a1.5,1.5,0,0,0,1.287-.782.321.321,0,0,1,.511-.041,2.024,2.024,0,0,0,3.257,0,.321.321,0,0,1,.483,0,2.028,2.028,0,0,0,3.261,0,.323.323,0,0,1,.511.04,1.5,1.5,0,0,0,1.286.782h.111a1.454,1.454,0,0,0,1.452-1.452V74.592A1.454,1.454,0,0,0,121.832,73.14Zm.2,13.531a.2.2,0,0,1-.2.2h-.111c-.1,0-.186-.125-.209-.164a1.561,1.561,0,0,0-2.553-.2.789.789,0,0,1-1.332,0,1.609,1.609,0,0,0-2.412,0,.785.785,0,0,1-1.328,0,1.561,1.561,0,0,0-2.553.2c-.023.038-.1.164-.209.164H111a.2.2,0,0,1-.2-.2V74.592a.2.2,0,0,1,.2-.2h.123c.1,0,.187.126.209.163a1.561,1.561,0,0,0,2.553.2.785.785,0,0,1,1.328,0,1.609,1.609,0,0,0,2.412,0,.789.789,0,0,1,1.333,0,1.561,1.561,0,0,0,2.553-.2c.022-.038.1-.163.208-.163h.111a.2.2,0,0,1,.2.2Z" transform="translate(0)" fill="#0e4a6e"/>
    <path id="Path_16611" data-name="Path 16611" d="M255.742,365.46h8.74v1.248h-8.74Zm0,3.119h6.243v1.253H255.74Z" transform="translate(-143.695 -287.33)" fill="#0e4a6e"/>
  </g>
</svg>
