<svg xmlns="http://www.w3.org/2000/svg" width="20.5" height="19.313" viewBox="0 0 20.5 19.313">
  <g id="Purchase_Orders" data-name="Purchase Orders" transform="translate(-3.75 -3.75)">
    <path id="Path_11897" data-name="Path 11897" d="M6.5,6.637A2.138,2.138,0,0,1,8.637,4.5h7.6a2.138,2.138,0,0,1,2.137,2.137v6.175H8.637A2.138,2.138,0,0,1,6.5,10.675Z" transform="translate(0.375)" fill="none" stroke="#fff" stroke-width="1.5"/>
    <path id="Path_11898" data-name="Path 11898" d="M4.5,13.637A2.138,2.138,0,0,1,6.637,11.5H14V21H6.637A2.138,2.138,0,0,1,4.5,18.863Z" transform="translate(0 1.312)" fill="none" stroke="#fff" stroke-width="1.5"/>
    <path id="Path_11899" data-name="Path 11899" d="M12.5,11.5h7.362A2.138,2.138,0,0,1,22,13.637v5.225A2.138,2.138,0,0,1,19.862,21H12.5Z" transform="translate(1.5 1.312)" fill="none" stroke="#fff" stroke-width="1.5"/>
    <path id="Path_11900" data-name="Path 11900" d="M16.5,11.5v3.563" transform="translate(2.25 1.312)" fill="none" stroke="#fff" stroke-linecap="round" stroke-width="1.5"/>
    <path id="Path_11901" data-name="Path 11901" d="M8.5,11.5v3.563" transform="translate(0.75 1.312)" fill="none" stroke="#fff" stroke-linecap="round" stroke-width="1.5"/>
    <path id="Path_11902" data-name="Path 11902" d="M11.5,4.5V8.063" transform="translate(1.312)" fill="none" stroke="#fff" stroke-linecap="round" stroke-width="1.5"/>
  </g>
</svg>
