<svg xmlns="http://www.w3.org/2000/svg" width="24.047" height="20.633" viewBox="0 0 24.047 20.633">
  <g id="Sales_Representative" data-name="Sales Representative" transform="translate(-0.001 -71.68)">
    <path id="Path_17725" data-name="Path 17725" d="M3.217,124.7a.24.24,0,0,0,.24-.24V117.7a.24.24,0,0,0-.24-.24H1.293a.24.24,0,0,0-.24.24v6.758a.24.24,0,0,0,.24.24Zm0,.962H1.293a1.2,1.2,0,0,1-1.2-1.2V117.7a1.2,1.2,0,0,1,1.2-1.2H3.217a1.2,1.2,0,0,1,1.2,1.2v6.758A1.2,1.2,0,0,1,3.217,125.664Zm6.537-.962a.24.24,0,0,0,.24-.24v-8.154a.24.24,0,0,0-.24-.24H7.831a.24.24,0,0,0-.24.24v8.154a.24.24,0,0,0,.24.24Zm0,.962H7.831a1.2,1.2,0,0,1-1.2-1.2v-8.154a1.2,1.2,0,0,1,1.2-1.2H9.754a1.2,1.2,0,0,1,1.2,1.2v8.154A1.2,1.2,0,0,1,9.754,125.664Zm6.537-.947a.24.24,0,0,0,.24-.24v-9.55a.241.241,0,0,0-.24-.24H14.368a.241.241,0,0,0-.24.24v9.55a.24.24,0,0,0,.24.24Zm0,.962H14.368a1.2,1.2,0,0,1-1.2-1.2v-9.55a1.2,1.2,0,0,1,1.2-1.2h1.924a1.2,1.2,0,0,1,1.2,1.2v9.55a1.2,1.2,0,0,1-1.2,1.2Zm6.537-.962a.24.24,0,0,0,.24-.24V113.725a.24.24,0,0,0-.24-.24H20.905a.24.24,0,0,0-.24.24v10.752a.24.24,0,0,0,.24.24Zm0,.962H20.905a1.2,1.2,0,0,1-1.2-1.2V113.725a1.2,1.2,0,0,1,1.2-1.2h1.924a1.2,1.2,0,0,1,1.2,1.2v10.752A1.2,1.2,0,0,1,22.829,125.679Zm-.146-19.769a51.529,51.529,0,0,1-22.23,6.548.481.481,0,0,0,.058.96,52.491,52.491,0,0,0,22.644-6.67.481.481,0,1,0-.472-.838Z" transform="translate(0 -33.366)" fill="#0a3550"/>
    <path id="Path_17726" data-name="Path 17726" d="M881.241,72.642l2.4,0a.481.481,0,0,0,0-.962l-2.4,0a.481.481,0,1,0,0,.962Z" transform="translate(-860.079)" fill="#0a3550"/>
    <path id="Path_17727" data-name="Path 17727" d="M982.851,72.312l-.007,2.391a.481.481,0,0,0,.962,0l.007-2.391a.481.481,0,0,0-.962,0Z" transform="translate(-959.765 -0.149)" fill="#0a3550"/>
  </g>
</svg>
