<svg xmlns="http://www.w3.org/2000/svg" width="20.005" height="19.081" viewBox="0 0 20.005 19.081">
  <g id="setting" transform="translate(-1.25 -1.694)">
    <path id="Path_11911" data-name="Path 11911" d="M11.774,14.549A2.774,2.774,0,1,0,9,11.774,2.774,2.774,0,0,0,11.774,14.549Z" transform="translate(-0.526 -0.484)" fill="none" stroke="#fff" stroke-linecap="round" stroke-linejoin="round" stroke-miterlimit="10" stroke-width="1.5"/>
    <path id="Path_11912" data-name="Path 11912" d="M2,12.1V10.476A1.762,1.762,0,0,1,3.757,8.719c1.674,0,2.358-1.184,1.517-2.636a1.756,1.756,0,0,1,.647-2.4l1.6-.916a1.544,1.544,0,0,1,2.109.555l.1.176c.832,1.452,2.2,1.452,3.043,0l.1-.176a1.544,1.544,0,0,1,2.109-.555l1.6.916a1.756,1.756,0,0,1,.647,2.4c-.842,1.452-.157,2.636,1.517,2.636a1.762,1.762,0,0,1,1.757,1.757V12.1a1.762,1.762,0,0,1-1.757,1.757c-1.674,0-2.358,1.184-1.517,2.636a1.754,1.754,0,0,1-.647,2.4l-1.6.916a1.544,1.544,0,0,1-2.109-.555l-.1-.176c-.832-1.452-2.2-1.452-3.043,0l-.1.176a1.544,1.544,0,0,1-2.109.555l-1.6-.916a1.756,1.756,0,0,1-.647-2.4c.842-1.452.157-2.636-1.517-2.636A1.762,1.762,0,0,1,2,12.1Z" fill="none" stroke="#fff" stroke-linecap="round" stroke-linejoin="round" stroke-miterlimit="10" stroke-width="1.5"/>
  </g>
</svg>
