<svg xmlns="http://www.w3.org/2000/svg" width="35.813" height="22.441" viewBox="0 0 35.813 22.441">
  <g id="Toggle_on" data-name="Toggle on" transform="translate(-8.036 -17.082)">
    <g id="toggle-off" transform="translate(8.036 17.082)">
      <path id="Path_18792" data-name="Path 18792" d="M32.878,17.1c7.03.134,13.1,7.745,10.253,15.227A11.373,11.373,0,0,1,32.878,39.5q-6.945.045-13.889,0C11.782,39.364,5.591,31.174,9,23.648A11.374,11.374,0,0,1,18.989,17.1q6.945-.045,13.889,0ZM19.142,20.089c-5.339.034-9.966,6.019-7.424,11.637a8.321,8.321,0,0,0,7.309,4.788q6.908.044,13.815,0a8.214,8.214,0,0,0,0-16.424c-4.566-.029-9.132,0-13.7,0Z" transform="translate(-8.036 -17.082)" fill="#2680eb"/>
      <circle id="Ellipse_165" data-name="Ellipse 165" cx="7.477" cy="7.477" r="7.477" transform="translate(17.222 3.743)" fill="#2680eb"/>
    </g>
  </g>
</svg>
