<svg xmlns="http://www.w3.org/2000/svg" width="35.813" height="22.441" viewBox="0 0 35.813 22.441">
  <g id="toggle-off" transform="translate(0 0)">
    <path id="Path_18792" data-name="Path 18792" d="M19.007,17.1c-7.03.134-13.1,7.745-10.253,15.227A11.373,11.373,0,0,0,19.007,39.5q6.945.045,13.889,0c7.207-.137,13.4-8.327,9.992-15.853A11.374,11.374,0,0,0,32.9,17.1q-6.945-.045-13.889,0Zm13.736,2.985c5.339.034,9.966,6.019,7.424,11.637a8.321,8.321,0,0,1-7.309,4.788q-6.908.044-13.815,0a8.214,8.214,0,0,1,0-16.424c4.566-.029,9.132,0,13.7,0Z" transform="translate(-8.036 -17.082)" fill="#b9b9b9"/>
    <circle id="Ellipse_165" data-name="Ellipse 165" cx="7.477" cy="7.477" r="7.477" transform="translate(3.637 3.743)" fill="#b9b9b9"/>
  </g>
</svg>
